<svg id="visual" viewBox="0 0 900 300" width="900" height="300" xmlns="http://www.w3.org/2000/svg" xmlns:xlink="http://www.w3.org/1999/xlink" version="1.1"><path d="M0 94L13.7 83.5C27.3 73 54.7 52 82 42C109.3 32 136.7 33 163.8 35C191 37 218 40 245.2 47.5C272.3 55 299.7 67 327 66C354.3 65 381.7 51 409 43C436.3 35 463.7 33 491 38.5C518.3 44 545.7 57 573 65C600.3 73 627.7 76 654.8 72.5C682 69 709 59 736.2 56.5C763.3 54 790.7 59 818 64.5C845.3 70 872.7 76 886.3 79L900 82L900 0L886.3 0C872.7 0 845.3 0 818 0C790.7 0 763.3 0 736.2 0C709 0 682 0 654.8 0C627.7 0 600.3 0 573 0C545.7 0 518.3 0 491 0C463.7 0 436.3 0 409 0C381.7 0 354.3 0 327 0C299.7 0 272.3 0 245.2 0C218 0 191 0 163.8 0C136.7 0 109.3 0 82 0C54.7 0 27.3 0 13.7 0L0 0Z" fill="#ff9cce"></path><path d="M0 118L13.7 112.5C27.3 107 54.7 96 82 90.5C109.3 85 136.7 85 163.8 88.5C191 92 218 99 245.2 105.5C272.3 112 299.7 118 327 111C354.3 104 381.7 84 409 78.5C436.3 73 463.7 82 491 94C518.3 106 545.7 121 573 128C600.3 135 627.7 134 654.8 124.5C682 115 709 97 736.2 89C763.3 81 790.7 83 818 87.5C845.3 92 872.7 99 886.3 102.5L900 106L900 80L886.3 77C872.7 74 845.3 68 818 62.5C790.7 57 763.3 52 736.2 54.5C709 57 682 67 654.8 70.5C627.7 74 600.3 71 573 63C545.7 55 518.3 42 491 36.5C463.7 31 436.3 33 409 41C381.7 49 354.3 63 327 64C299.7 65 272.3 53 245.2 45.5C218 38 191 35 163.8 33C136.7 31 109.3 30 82 40C54.7 50 27.3 71 13.7 81.5L0 92Z" fill="#ff84c1"></path><path d="M0 136L13.7 132C27.3 128 54.7 120 82 120C109.3 120 136.7 128 163.8 133C191 138 218 140 245.2 143C272.3 146 299.7 150 327 142C354.3 134 381.7 114 409 107.5C436.3 101 463.7 108 491 119C518.3 130 545.7 145 573 151C600.3 157 627.7 154 654.8 146.5C682 139 709 127 736.2 124C763.3 121 790.7 127 818 130C845.3 133 872.7 133 886.3 133L900 133L900 104L886.3 100.5C872.7 97 845.3 90 818 85.5C790.7 81 763.3 79 736.2 87C709 95 682 113 654.8 122.5C627.7 132 600.3 133 573 126C545.7 119 518.3 104 491 92C463.7 80 436.3 71 409 76.5C381.7 82 354.3 102 327 109C299.7 116 272.3 110 245.2 103.5C218 97 191 90 163.8 86.5C136.7 83 109.3 83 82 88.5C54.7 94 27.3 105 13.7 110.5L0 116Z" fill="#ff69b4"></path><path d="M0 184L13.7 187.5C27.3 191 54.7 198 82 209.5C109.3 221 136.7 237 163.8 233.5C191 230 218 207 245.2 199C272.3 191 299.7 198 327 201.5C354.3 205 381.7 205 409 199.5C436.3 194 463.7 183 491 185C518.3 187 545.7 202 573 206.5C600.3 211 627.7 205 654.8 195.5C682 186 709 173 736.2 175C763.3 177 790.7 194 818 200.5C845.3 207 872.7 203 886.3 201L900 199L900 131L886.3 131C872.7 131 845.3 131 818 128C790.7 125 763.3 119 736.2 122C709 125 682 137 654.8 144.5C627.7 152 600.3 155 573 149C545.7 143 518.3 128 491 117C463.7 106 436.3 99 409 105.5C381.7 112 354.3 132 327 140C299.7 148 272.3 144 245.2 141C218 138 191 136 163.8 131C136.7 126 109.3 118 82 118C54.7 118 27.3 126 13.7 130L0 134Z" fill="#f35ba4"></path><path d="M0 301L13.7 301C27.3 301 54.7 301 82 301C109.3 301 136.7 301 163.8 301C191 301 218 301 245.2 301C272.3 301 299.7 301 327 301C354.3 301 381.7 301 409 301C436.3 301 463.7 301 491 301C518.3 301 545.7 301 573 301C600.3 301 627.7 301 654.8 301C682 301 709 301 736.2 301C763.3 301 790.7 301 818 301C845.3 301 872.7 301 886.3 301L900 301L900 197L886.3 199C872.7 201 845.3 205 818 198.5C790.7 192 763.3 175 736.2 173C709 171 682 184 654.8 193.5C627.7 203 600.3 209 573 204.5C545.7 200 518.3 185 491 183C463.7 181 436.3 192 409 197.5C381.7 203 354.3 203 327 199.5C299.7 196 272.3 189 245.2 197C218 205 191 228 163.8 231.5C136.7 235 109.3 219 82 207.5C54.7 196 27.3 189 13.7 185.5L0 182Z" fill="#e74d95"></path></svg>